<svg xmlns="http://www.w3.org/2000/svg" width="640" height="400" viewBox="0 0 640 400" role="img" aria-label="Zrzut ekranu narzędzia — wkrótce">
  <rect width="640" height="400" rx="14" fill="#1c1c1c"/>
  <rect x="1" y="1" width="638" height="398" rx="13" fill="none" stroke="#3a3a3a"/>
  <!-- pasek okna -->
  <rect x="1" y="1" width="638" height="42" rx="13" fill="#171717"/>
  <rect x="1" y="30" width="638" height="13" fill="#171717"/>
  <circle cx="26" cy="22" r="5" fill="#8895a6"/>
  <circle cx="44" cy="22" r="5" fill="#55627a"/>
  <circle cx="62" cy="22" r="5" fill="#3a4656"/>
  <rect x="84" y="14" width="150" height="16" rx="8" fill="#262626"/>
  <!-- sidebar -->
  <rect x="18" y="60" width="120" height="320" rx="10" fill="#171717"/>
  <rect x="30" y="76" width="80" height="10" rx="5" fill="#a8b4c2" opacity="0.8"/>
  <rect x="30" y="100" width="96" height="8" rx="4" fill="#3a3a3a"/>
  <rect x="30" y="118" width="88" height="8" rx="4" fill="#3a3a3a"/>
  <rect x="30" y="136" width="92" height="8" rx="4" fill="#3a3a3a"/>
  <!-- kafle KPI -->
  <rect x="154" y="60" width="148" height="72" rx="10" fill="#262626"/>
  <rect x="166" y="74" width="60" height="8" rx="4" fill="#3a3a3a"/>
  <rect x="166" y="94" width="90" height="16" rx="6" fill="#a8b4c2" opacity="0.85"/>
  <rect x="318" y="60" width="148" height="72" rx="10" fill="#262626"/>
  <rect x="330" y="74" width="60" height="8" rx="4" fill="#3a3a3a"/>
  <rect x="330" y="94" width="76" height="16" rx="6" fill="#8895a6" opacity="0.85"/>
  <rect x="482" y="60" width="140" height="72" rx="10" fill="#262626"/>
  <rect x="494" y="74" width="56" height="8" rx="4" fill="#3a3a3a"/>
  <rect x="494" y="94" width="66" height="16" rx="6" fill="#69788c" opacity="0.9"/>
  <!-- wykres -->
  <rect x="154" y="148" width="468" height="150" rx="10" fill="#262626"/>
  <polyline points="176,262 236,240 296,252 356,222 416,238 476,206 536,214 596,196"
    fill="none" stroke="#a8b4c2" stroke-width="2.5" stroke-linecap="round" stroke-linejoin="round"/>
  <line x1="176" y1="272" x2="600" y2="272" stroke="#3a3a3a" stroke-dasharray="3 5"/>
  <circle cx="596" cy="196" r="4" fill="#d7dee7"/>
  <!-- tabela -->
  <rect x="154" y="312" width="468" height="68" rx="10" fill="#262626"/>
  <rect x="168" y="326" width="440" height="8" rx="4" fill="#3a3a3a"/>
  <rect x="168" y="344" width="410" height="8" rx="4" fill="#333"/>
  <rect x="168" y="362" width="425" height="8" rx="4" fill="#333"/>
  <!-- podpis -->
  <text x="320" y="230" text-anchor="middle" font-family="'Nunito Sans','Segoe UI',sans-serif"
    font-size="15" font-weight="800" fill="#d9e0e8" letter-spacing="2">ZRZUT EKRANU NARZĘDZIA</text>
  <text x="320" y="250" text-anchor="middle" font-family="'Nunito Sans','Segoe UI',sans-serif"
    font-size="11" font-weight="600" fill="#8895a6" letter-spacing="1">podgląd wdrożenia — wkrótce</text>
</svg>
